<svg width="250" height="79" viewBox="0 0 250 79" fill="none" xmlns="http://www.w3.org/2000/svg">
<g clip-path="url(#clip0_130_358)">
<path d="M1.76367 34.1964C1.76367 52.2637 18.5185 67.1889 38.8007 67.1889C59.0829 67.1889 75.8377 52.2637 75.8377 34.1964C75.8377 16.129 59.0829 1.40015 38.8007 1.40015C18.5185 1.40015 1.76367 16.129 1.76367 34.1964ZM52.4691 49.5143C43.8713 44.8011 32.8483 43.6228 20.0617 46.1758C16.9753 46.5686 16.5344 42.6409 19.1799 42.2481C33.2892 39.3024 45.194 40.677 54.8942 45.9794C57.3192 47.3541 54.8942 50.6927 52.4691 49.5143ZM56.2169 40.677C46.2963 35.1783 31.0847 33.6072 19.4004 36.7494C15.6526 37.7313 14.3298 32.6253 17.8571 31.8397C31.3051 28.3048 47.8395 30.0723 59.3034 36.3566C62.3898 38.124 59.3034 42.4445 56.2169 40.677ZM17.6367 26.7337C13.8889 27.9121 11.4638 22.2169 15.6526 20.8422C28.6596 17.3073 50.7055 17.8964 64.3739 25.1627C68.1217 26.9301 64.5944 32.4289 60.6261 30.4651C48.7213 24.1807 28.8801 23.5916 17.6367 26.7337ZM101.19 44.6047C97.4427 44.6047 93.9153 43.4264 90.8289 40.677C90.6085 40.677 90.6085 40.8734 90.6085 40.8734L87.0811 44.6047C86.8607 44.8011 86.8607 44.9975 87.0811 45.1939C91.0494 48.336 95.8995 49.9071 101.19 49.9071C108.686 49.9071 113.316 46.1758 113.316 40.677C113.316 35.9638 110.009 33.4108 102.293 31.6434C95.8995 30.2687 94.7972 29.2867 94.7972 27.3229C94.7972 25.3591 97.0018 24.1807 99.8677 24.1807C102.734 24.1807 105.379 25.1627 108.466 27.1265C108.466 27.1265 108.686 27.3229 108.907 27.3229C109.127 27.3229 109.127 27.1265 109.127 27.1265L112.213 23.1988C112.434 23.0024 112.434 23.0024 112.213 22.8061C108.686 20.2531 104.497 18.8784 99.8677 18.8784C93.0335 18.8784 88.1834 22.6097 88.1834 27.9121C88.1834 33.6072 92.5926 35.3747 99.6473 36.9457C105.82 38.124 106.702 39.3024 106.702 41.2662C106.702 43.4264 104.497 44.6047 101.19 44.6047ZM122.134 29.4831V26.9301C122.134 26.7337 121.914 26.5374 121.693 26.5374H115.961C115.741 26.5374 115.52 26.7337 115.52 26.9301V55.7986C115.52 55.995 115.741 56.1914 115.961 56.1914H121.693C121.914 56.1914 122.134 55.995 122.134 55.7986V46.765C124.339 48.9252 126.764 49.9071 130.071 49.9071C136.023 49.9071 141.975 45.783 141.975 37.9277C141.975 30.0723 136.023 26.1446 130.071 26.1446C126.764 26.1446 124.339 27.1265 122.134 29.4831ZM128.748 44.8011C124.78 44.8011 121.914 41.8554 121.914 37.9277C121.914 34 124.78 31.2506 128.748 31.2506C132.716 31.2506 135.362 34 135.362 37.9277C135.362 41.8554 132.716 44.8011 128.748 44.8011ZM143.739 38.124C143.739 44.8011 149.691 49.9071 157.407 49.9071C165.123 49.9071 171.076 44.6047 171.076 37.9277C171.076 31.2506 165.344 26.1446 157.628 26.1446C149.912 26.1446 143.739 31.447 143.739 38.124ZM150.353 37.9277C150.353 34 153.219 31.2506 157.407 31.2506C161.596 31.2506 164.683 34.1964 164.683 38.124C164.683 42.0517 161.817 44.8011 157.628 44.8011C153.439 44.8011 150.353 41.8554 150.353 37.9277ZM181.217 26.5374V20.8422C181.217 20.6458 181.217 20.4494 180.996 20.4494H175.265C175.044 20.4494 174.824 20.6458 174.824 20.8422V26.5374H171.958C171.737 26.5374 171.517 26.7337 171.517 26.9301V31.2506C171.517 31.447 171.737 31.6434 171.958 31.6434H174.824V43.0337C174.824 47.5505 177.249 49.9071 182.319 49.9071C184.303 49.9071 186.287 49.5143 187.831 48.7288C188.051 48.7288 188.051 48.5324 188.051 48.336V44.212C188.051 44.0156 188.051 43.8192 187.831 43.8192H187.39C186.287 44.4083 184.965 44.6047 183.862 44.6047C182.099 44.6047 181.217 43.8192 181.217 42.2481V31.6434H187.831C188.051 31.6434 188.272 31.447 188.272 31.2506V26.9301C188.272 26.7337 188.051 26.5374 187.831 26.5374H181.217ZM209.656 25.9482C209.656 23.788 210.538 23.0024 212.522 23.0024C213.624 23.0024 214.727 23.0024 215.829 23.3952H216.049C216.049 23.3952 216.27 23.1988 216.27 23.0024V18.8784C216.27 18.682 216.27 18.4856 216.049 18.4856C214.947 18.0928 213.404 17.8964 211.199 17.8964C205.908 17.8964 203.263 20.6458 203.263 25.5554V26.5374H200.397C200.176 26.5374 199.956 26.7337 199.956 26.9301V31.2506C199.956 31.447 200.176 31.6434 200.397 31.6434H203.263V49.1216C203.263 49.318 203.483 49.5143 203.704 49.5143H209.436C209.656 49.5143 209.656 49.318 209.656 49.1216V31.6434H215.168L223.325 49.1216C222.443 50.889 221.561 51.2818 220.238 51.2818C219.136 51.2818 218.034 51.0854 216.931 50.4963H216.711L216.49 50.6927L214.506 54.424C214.506 54.6203 214.506 55.0131 214.727 55.0131C216.711 55.995 218.474 56.3878 220.679 56.3878C224.868 56.3878 227.293 54.6203 229.277 49.9071L239.198 27.1265V26.7337C239.198 26.5374 238.977 26.5374 238.757 26.5374H232.804C232.584 26.5374 232.584 26.7337 232.584 26.9301L226.411 42.2481L219.797 26.9301C219.797 26.7337 219.577 26.5374 219.356 26.5374H209.656V25.9482ZM191.358 26.5374C191.138 26.5374 190.917 26.7337 190.917 26.9301V49.1216C190.917 49.318 191.138 49.5143 191.358 49.5143H197.09C197.31 49.5143 197.31 49.318 197.31 49.1216V26.9301C197.31 26.7337 197.31 26.5374 197.09 26.5374H191.358ZM190.035 20.0567C190.035 22.0205 192.019 23.788 194.224 23.788C196.429 23.788 198.192 22.0205 198.192 20.0567C198.192 18.0928 196.429 16.5218 194.224 16.5218C192.019 16.5218 190.035 18.0928 190.035 20.0567ZM244.048 33.6072C246.252 33.6072 248.236 32.0361 248.236 30.0723C248.236 28.1084 246.252 26.5374 244.048 26.5374C241.843 26.5374 240.079 28.1084 240.079 30.0723C240.079 32.0361 241.843 33.6072 244.048 33.6072ZM244.048 26.9301C246.032 26.9301 247.795 28.3048 247.795 30.0723C247.795 31.8397 246.032 33.2144 244.048 33.2144C242.063 33.2144 240.52 31.8397 240.52 30.0723C240.52 28.3048 242.063 26.9301 244.048 26.9301ZM244.929 30.4651C245.591 30.2687 246.032 29.8759 246.032 29.2867C246.032 28.5012 245.15 28.1084 244.268 28.1084H242.504V31.8397H243.386V30.6614H244.268L245.15 31.8397H246.252L244.929 30.4651ZM244.268 28.6976C244.709 28.6976 245.15 28.894 245.15 29.2867C245.15 29.6795 244.709 29.8759 244.268 29.8759H243.386V28.6976H244.268Z" fill="white"/>
</g>
<path d="M219.951 65.2646C219.914 64.8922 219.755 64.6029 219.475 64.3967C219.195 64.1905 218.815 64.0874 218.335 64.0874C218.009 64.0874 217.733 64.1335 217.509 64.2259C217.284 64.3151 217.112 64.4397 216.991 64.5998C216.875 64.7598 216.816 64.9414 216.816 65.1445C216.81 65.3138 216.845 65.4615 216.922 65.5877C217.002 65.7139 217.112 65.8232 217.25 65.9155C217.388 66.0047 217.549 66.0832 217.73 66.1509C217.912 66.2156 218.106 66.271 218.312 66.3171L219.161 66.5202C219.574 66.6126 219.952 66.7357 220.297 66.8896C220.642 67.0434 220.94 67.2327 221.192 67.4574C221.445 67.6821 221.64 67.9467 221.779 68.2514C221.92 68.5561 221.993 68.9054 221.996 69.2994C221.993 69.878 221.845 70.3796 221.553 70.8043C221.263 71.226 220.845 71.5537 220.297 71.7876C219.752 72.0185 219.095 72.1339 218.326 72.1339C217.562 72.1339 216.898 72.0169 216.331 71.783C215.768 71.5491 215.328 71.2029 215.011 70.7443C214.697 70.2827 214.532 69.7118 214.517 69.0316H216.451C216.473 69.3486 216.564 69.6133 216.724 69.8256C216.887 70.0349 217.104 70.1934 217.375 70.3011C217.649 70.4058 217.958 70.4581 218.303 70.4581C218.641 70.4581 218.935 70.4089 219.184 70.3104C219.437 70.2119 219.632 70.0749 219.771 69.8995C219.909 69.7241 219.978 69.5225 219.978 69.2947C219.978 69.0824 219.915 68.9039 219.789 68.7592C219.666 68.6146 219.484 68.4915 219.244 68.3899C219.007 68.2884 218.717 68.196 218.372 68.1129L217.342 67.8544C216.545 67.6605 215.916 67.3574 215.454 66.945C214.993 66.5326 214.763 65.977 214.766 65.2784C214.763 64.706 214.916 64.2058 215.223 63.7781C215.534 63.3503 215.96 63.0163 216.502 62.7763C217.044 62.5362 217.659 62.4162 218.349 62.4162C219.05 62.4162 219.663 62.5362 220.186 62.7763C220.712 63.0163 221.122 63.3503 221.414 63.7781C221.706 64.2058 221.857 64.7013 221.866 65.2646H219.951ZM227.075 64.9091V66.3864H222.805V64.9091H227.075ZM223.774 63.2102H225.741V69.821C225.741 70.0026 225.769 70.1442 225.824 70.2457C225.879 70.3442 225.956 70.4135 226.055 70.4535C226.156 70.4935 226.273 70.5135 226.406 70.5135C226.498 70.5135 226.59 70.5058 226.683 70.4904C226.775 70.4719 226.846 70.4581 226.895 70.4489L227.204 71.9123C227.106 71.9431 226.967 71.9785 226.789 72.0185C226.61 72.0616 226.393 72.0877 226.138 72.0969C225.664 72.1154 225.248 72.0523 224.891 71.9077C224.537 71.763 224.262 71.5384 224.065 71.2337C223.868 70.929 223.771 70.5443 223.774 70.0795V63.2102ZM230.378 72.1339C229.926 72.1339 229.523 72.0554 229.169 71.8984C228.815 71.7384 228.535 71.503 228.328 71.1921C228.125 70.8782 228.024 70.4873 228.024 70.0195C228.024 69.6256 228.096 69.2947 228.241 69.027C228.385 68.7592 228.582 68.5438 228.832 68.3807C229.081 68.2176 229.364 68.0945 229.681 68.0114C230.001 67.9283 230.337 67.8698 230.687 67.8359C231.1 67.7929 231.432 67.7528 231.685 67.7159C231.937 67.6759 232.12 67.6174 232.234 67.5405C232.348 67.4635 232.405 67.3497 232.405 67.1989V67.1712C232.405 66.8788 232.312 66.6526 232.128 66.4925C231.946 66.3325 231.688 66.2525 231.352 66.2525C230.998 66.2525 230.717 66.331 230.507 66.4879C230.298 66.6418 230.16 66.8357 230.092 67.0696L228.273 66.9219C228.365 66.491 228.547 66.1186 228.818 65.8047C229.089 65.4877 229.438 65.2446 229.866 65.0753C230.297 64.9029 230.795 64.8168 231.361 64.8168C231.755 64.8168 232.132 64.8629 232.492 64.9553C232.856 65.0476 233.177 65.1907 233.457 65.3846C233.74 65.5785 233.964 65.8278 234.127 66.1325C234.29 66.4341 234.371 66.7957 234.371 67.2173V72H232.506V71.0167H232.451C232.337 71.2383 232.185 71.4337 231.994 71.603C231.803 71.7692 231.574 71.9 231.306 71.9954C231.038 72.0877 230.729 72.1339 230.378 72.1339ZM230.941 70.7766C231.231 70.7766 231.486 70.7197 231.708 70.6058C231.929 70.4889 232.103 70.3319 232.229 70.1349C232.355 69.938 232.419 69.7148 232.419 69.4656V68.7131C232.357 68.7531 232.272 68.79 232.165 68.8239C232.06 68.8546 231.942 68.8839 231.809 68.9116C231.677 68.9362 231.545 68.9593 231.412 68.9808C231.28 68.9993 231.16 69.0162 231.052 69.0316C230.821 69.0655 230.62 69.1193 230.447 69.1932C230.275 69.267 230.141 69.3671 230.046 69.4933C229.95 69.6164 229.903 69.7702 229.903 69.9549C229.903 70.2227 230 70.4273 230.193 70.5689C230.39 70.7074 230.64 70.7766 230.941 70.7766ZM239.669 64.9091V66.3864H235.399V64.9091H239.669ZM236.368 63.2102H238.335V69.821C238.335 70.0026 238.362 70.1442 238.418 70.2457C238.473 70.3442 238.55 70.4135 238.649 70.4535C238.75 70.4935 238.867 70.5135 238.999 70.5135C239.092 70.5135 239.184 70.5058 239.276 70.4904C239.369 70.4719 239.439 70.4581 239.489 70.4489L239.798 71.9123C239.7 71.9431 239.561 71.9785 239.383 72.0185C239.204 72.0616 238.987 72.0877 238.732 72.0969C238.258 72.1154 237.842 72.0523 237.485 71.9077C237.131 71.763 236.856 71.5384 236.659 71.2337C236.462 70.929 236.365 70.5443 236.368 70.0795V63.2102ZM246.761 66.9311L244.96 67.0419C244.93 66.888 244.863 66.7495 244.762 66.6264C244.66 66.5002 244.526 66.4002 244.36 66.3263C244.197 66.2494 244.002 66.2109 243.774 66.2109C243.469 66.2109 243.212 66.2756 243.003 66.4048C242.794 66.531 242.689 66.7003 242.689 66.9126C242.689 67.0819 242.757 67.225 242.892 67.342C243.028 67.4589 243.26 67.5528 243.589 67.6236L244.873 67.8821C245.562 68.0237 246.076 68.2514 246.415 68.5653C246.753 68.8793 246.922 69.2917 246.922 69.8026C246.922 70.2673 246.785 70.6751 246.512 71.0259C246.241 71.3768 245.868 71.6507 245.394 71.8477C244.923 72.0415 244.38 72.1385 243.765 72.1385C242.826 72.1385 242.078 71.9431 241.521 71.5522C240.967 71.1583 240.642 70.6228 240.547 69.9457L242.481 69.8441C242.54 70.1303 242.681 70.3488 242.906 70.4996C243.131 70.6474 243.419 70.7212 243.769 70.7212C244.114 70.7212 244.391 70.6551 244.6 70.5227C244.813 70.3873 244.92 70.2134 244.923 70.0011C244.92 69.8226 244.845 69.6764 244.697 69.5625C244.55 69.4455 244.322 69.3563 244.014 69.2947L242.786 69.0501C242.094 68.9116 241.578 68.6715 241.24 68.3299C240.904 67.9883 240.736 67.5528 240.736 67.0234C240.736 66.5679 240.859 66.1755 241.106 65.8462C241.355 65.5169 241.704 65.263 242.154 65.0845C242.606 64.906 243.135 64.8168 243.742 64.8168C244.637 64.8168 245.342 65.006 245.856 65.3846C246.373 65.7631 246.675 66.2786 246.761 66.9311Z" fill="white"/>
<defs>
<clipPath id="clip0_130_358">
<rect width="250" height="68" fill="white"/>
</clipPath>
</defs>
</svg>
