<svg width="470" height="131" viewBox="0 0 470 131" fill="none" xmlns="http://www.w3.org/2000/svg">
<path d="M112.173 57.6279C89.4567 45.1858 51.9772 44.0375 30.2849 50.1096C29.0317 50.4573 27.6907 50.4556 26.4386 50.1046C25.1865 49.7536 24.0822 49.0698 23.271 48.1433C22.4432 47.2086 21.9348 46.078 21.8076 44.8887C21.6803 43.6994 21.9396 42.5024 22.554 41.4429C23.3735 40.0238 24.7835 38.9512 26.4586 38.4746C51.3565 31.5033 92.7406 32.8521 118.904 47.1683C119.841 47.6926 120.623 48.4123 121.184 49.2664C121.745 50.1205 122.069 51.0837 122.128 52.0742C122.186 53.0648 121.978 54.0534 121.52 54.9561C121.063 55.8589 120.37 56.6491 119.501 57.2596C118.811 57.7362 118.022 58.0838 117.181 58.2819C116.34 58.4801 115.463 58.5248 114.602 58.4133C113.746 58.305 112.914 58.0342 112.173 57.6279ZM111.426 76.0554C111.055 76.6168 110.565 77.1068 109.982 77.4972C109.4 77.8876 108.738 78.1708 108.034 78.3304C107.331 78.4855 106.601 78.5118 105.886 78.4075C105.172 78.3033 104.488 78.0707 103.876 77.7237C84.9314 66.9825 56.0505 63.8733 33.6351 70.1513C32.5896 70.4416 31.4708 70.4401 30.4263 70.1471C29.3817 69.8541 28.4605 69.2833 27.7842 68.51C27.0979 67.7302 26.677 66.7887 26.5722 65.7988C26.4675 64.809 26.6833 63.813 27.1937 62.9308C27.8715 61.7502 29.0412 60.8584 30.4476 60.45C56.0445 53.2837 87.8719 56.7558 109.624 69.0896C110.872 69.8133 111.758 70.9443 112.095 72.244C112.432 73.5436 112.188 74.9103 111.426 76.0554ZM102.809 93.7517C102.515 94.2029 102.123 94.5972 101.658 94.9114C101.192 95.2257 100.662 95.4538 100.098 95.5825C99.5351 95.7088 98.9496 95.7312 98.3769 95.6484C97.8042 95.5655 97.2561 95.3791 96.7658 95.1004C80.2073 85.7729 59.3827 83.6658 34.8463 88.8387C33.9927 89.0172 33.0989 88.9584 32.2833 88.6702C31.4677 88.3819 30.7687 87.8778 30.2788 87.2246C29.9459 86.7913 29.7105 86.3037 29.5859 85.7892C29.3212 84.7465 29.5202 83.6522 30.1403 82.7396C30.4446 82.2908 30.8445 81.9004 31.317 81.5909C31.7896 81.2813 32.3255 81.0587 32.894 80.9358C59.7382 75.2754 82.7682 77.7129 101.351 88.1833C102.346 88.7632 103.053 89.6668 103.324 90.7048C103.595 91.7427 103.414 92.8346 102.809 93.7517ZM70.4759 0C31.5563 0 0 29.1038 0 65C0 100.902 31.5503 130 70.4819 130C109.408 130 140.97 100.902 140.97 65C140.97 29.1038 109.408 0 70.4759 0ZM191.748 60.0058C179.582 57.33 177.413 55.4558 177.413 51.5017C177.413 47.775 181.227 45.2671 186.885 45.2671C192.369 45.2671 197.816 47.1737 203.516 51.0954C203.601 51.1534 203.698 51.1952 203.802 51.2185C203.905 51.2417 204.013 51.2459 204.118 51.2307C204.223 51.2155 204.324 51.1813 204.414 51.1301C204.505 51.0789 204.582 51.0118 204.643 50.9329L210.59 43.2088C210.708 43.0547 210.758 42.8668 210.73 42.6816C210.702 42.4964 210.598 42.3271 210.439 42.2067C203.649 37.18 196.002 34.7425 187.06 34.7425C173.924 34.7425 164.747 42.0117 164.747 52.4171C164.747 63.5754 172.671 67.5188 186.349 70.5737C197.991 73.0492 199.955 75.1237 199.955 78.8288C199.955 82.9292 195.984 85.4858 189.591 85.4858C182.481 85.4858 176.69 83.2758 170.212 78.0975C170.133 78.0339 170.04 77.9856 169.939 77.9554C169.838 77.9252 169.731 77.9138 169.625 77.9219C169.519 77.93 169.416 77.9575 169.322 78.0026C169.228 78.0476 169.146 78.1094 169.079 78.1842L162.415 85.4967C162.281 85.6432 162.214 85.8304 162.229 86.0199C162.243 86.2093 162.338 86.3865 162.493 86.515C170.038 92.7279 179.305 96.005 189.314 96.005C203.474 96.005 212.627 88.8712 212.627 77.8267C212.627 68.4938 206.583 63.3317 191.748 60.0058ZM254.939 72.5183C254.939 80.3942 249.672 85.8975 242.134 85.8975C234.693 85.8975 229.065 80.1504 229.065 72.5183C229.065 64.8808 234.687 59.1392 242.14 59.1392C249.552 59.1392 254.939 64.7617 254.939 72.5183ZM244.659 48.9342C238.525 48.9342 233.488 51.1658 229.336 55.7375V50.5917C229.337 50.3999 229.255 50.2153 229.107 50.0771C229.034 50.0096 228.947 49.9557 228.851 49.9185C228.755 49.8814 228.651 49.8616 228.547 49.8604H217.64C217.535 49.8613 217.432 49.8809 217.336 49.9181C217.24 49.9553 217.152 50.0094 217.08 50.0771C216.928 50.2157 216.844 50.4027 216.845 50.5971V107.721C216.845 108.133 217.206 108.463 217.646 108.463H228.547C228.652 108.461 228.755 108.441 228.851 108.403C228.948 108.365 229.034 108.31 229.107 108.241C229.256 108.102 229.339 107.915 229.336 107.721V89.6892C233.494 93.99 238.525 96.0808 244.659 96.0808C256.066 96.0808 267.605 87.9883 267.605 72.5183C267.605 57.0375 256.066 48.9342 244.659 48.9342ZM297.203 85.9787C289.387 85.9787 283.5 80.1937 283.5 72.5129C283.5 64.8104 289.183 59.215 297.022 59.215C304.885 59.215 310.809 65.0054 310.809 72.6862C310.809 80.3887 305.09 85.9787 297.203 85.9787ZM297.203 48.9396C282.512 48.9396 271.009 59.3721 271.009 72.6808C271.009 85.8542 282.434 96.1783 297.022 96.1783C311.755 96.1783 323.294 85.7783 323.294 72.5129C323.294 59.2962 311.839 48.9396 297.203 48.9396ZM354.657 49.8604H342.666V38.5504C342.669 38.4068 342.624 38.2657 342.539 38.1444C342.453 38.0232 342.33 37.927 342.184 37.8679C342.085 37.8307 341.978 37.8123 341.871 37.8137H330.97C330.759 37.8167 330.558 37.8946 330.41 38.0304C330.262 38.1686 330.18 38.3532 330.181 38.545V49.8496H324.939C324.779 49.8503 324.623 49.8947 324.491 49.9769C324.36 50.0592 324.26 50.1753 324.204 50.31C324.164 50.3996 324.143 50.4952 324.143 50.5917V59.2313C324.143 59.6321 324.505 59.9625 324.939 59.9625H330.181V82.3117C330.181 91.3412 335.056 95.9237 344.667 95.9237C348.571 95.9237 351.813 95.1762 354.874 93.5729C354.997 93.5083 355.099 93.4158 355.17 93.3046C355.241 93.1934 355.278 93.0673 355.278 92.9392V84.7167C355.277 84.5926 355.243 84.4706 355.176 84.3617C355.11 84.2529 355.014 84.1608 354.898 84.0937C354.783 84.0279 354.651 83.9903 354.514 83.9846C354.378 83.9789 354.242 84.0053 354.121 84.0612C352.018 85.0362 349.993 85.4858 347.728 85.4858C344.233 85.4858 342.666 84.0179 342.666 80.7408V59.9625H354.657C354.763 59.9626 354.868 59.9435 354.965 59.9063C355.062 59.869 355.15 59.8145 355.224 59.7458C355.375 59.6072 355.46 59.4202 355.459 59.2258V50.5862C355.459 50.3919 355.375 50.2052 355.224 50.0662C355.15 49.9981 355.062 49.9439 354.965 49.9067C354.867 49.8695 354.763 49.8501 354.657 49.8496V49.8604ZM396.439 49.8983V48.5171C396.439 44.4275 398.132 42.6021 401.946 42.6021C404.212 42.6021 406.044 43.0192 408.087 43.6529C408.206 43.6874 408.333 43.6955 408.457 43.6767C408.58 43.6578 408.697 43.6125 408.798 43.5446C408.902 43.4765 408.988 43.387 409.046 43.2834C409.105 43.1797 409.136 43.065 409.135 42.9487V34.4771C409.136 34.3196 409.081 34.1659 408.978 34.0383C408.878 33.9105 408.734 33.8154 408.569 33.7675C405.64 32.9459 402.586 32.5437 399.518 32.5758C389.455 32.5758 384.129 37.8029 384.129 47.6775V49.8062H378.886C378.782 49.8074 378.678 49.8272 378.582 49.8644C378.486 49.9015 378.399 49.9554 378.326 50.0229C378.176 50.1625 378.094 50.3493 378.097 50.5429V59.2258C378.097 59.6321 378.452 59.9625 378.892 59.9625H384.135V94.4342C384.135 94.8404 384.484 95.1654 384.924 95.1654H395.824C396.258 95.1654 396.614 94.8404 396.614 94.4342V59.9625H406.797L422.379 94.4233C420.608 98.0471 418.866 98.7675 416.492 98.7675C414.57 98.7675 412.552 98.2367 410.479 97.1967C410.383 97.1493 410.277 97.1201 410.169 97.1108C410.06 97.1015 409.95 97.1123 409.846 97.1425C409.742 97.1756 409.647 97.2272 409.567 97.2942C409.486 97.3613 409.421 97.4423 409.376 97.5325L405.688 105.007C405.604 105.175 405.592 105.365 405.654 105.54C405.716 105.715 405.849 105.863 406.026 105.955C409.556 107.806 413.581 108.758 417.667 108.707C425.706 108.707 430.158 105.251 434.081 95.9508L452.984 50.9004C453.03 50.7887 453.047 50.6687 453.032 50.5501C453.018 50.4315 452.972 50.3177 452.899 50.2179C452.829 50.1198 452.733 50.0388 452.619 49.9821C452.506 49.9254 452.378 49.8948 452.248 49.8929H440.902C440.733 49.8927 440.568 49.9409 440.432 50.0305C440.295 50.1201 440.194 50.2464 440.143 50.3913L428.525 81.0008L415.805 50.375C415.75 50.2364 415.649 50.1164 415.515 50.0312C415.381 49.946 415.222 49.8996 415.058 49.8983H396.439ZM372.216 49.855H361.316C361.21 49.8569 361.107 49.8775 361.011 49.9156C360.914 49.9537 360.828 50.0086 360.755 50.0771C360.606 50.2166 360.523 50.4034 360.526 50.5971V94.4396C360.526 94.8458 360.888 95.1708 361.322 95.1708H372.222C372.656 95.1708 373.011 94.8458 373.011 94.4396V50.5917C373.014 50.398 372.932 50.2112 372.782 50.0717C372.708 50.0038 372.62 49.9497 372.523 49.9125C372.426 49.8753 372.322 49.8558 372.216 49.855ZM366.817 29.8946C365.783 29.9019 364.761 30.0939 363.81 30.4594C362.86 30.8248 361.999 31.3564 361.279 32.0233C359.815 33.3775 358.996 35.1975 359.008 37.0987C358.999 38.9938 359.814 40.8169 361.279 42.1796C362.002 42.845 362.864 43.3756 363.815 43.7409C364.766 44.1062 365.789 44.299 366.823 44.3083C368.908 44.2975 370.902 43.5337 372.367 42.1796C373.831 40.8254 374.65 39 374.638 37.0987C374.638 33.1175 371.137 29.8946 366.829 29.8946H366.817ZM462.733 54.2154H460.739V56.5662H462.733C463.727 56.5662 464.324 56.1167 464.324 55.3962C464.324 54.6271 463.727 54.2208 462.733 54.2208V54.2154ZM464.029 57.5683L466.198 60.3688H464.366L462.42 57.8012H460.739V60.3688H459.208V52.9479H462.793C464.661 52.9479 465.897 53.8308 465.897 55.3096C465.921 55.8217 465.749 56.3257 465.409 56.737C465.068 57.1484 464.581 57.4419 464.029 57.5683ZM462.329 50.4725C458.401 50.4725 455.424 53.3542 455.424 56.8804C455.424 60.4012 458.377 63.245 462.287 63.245C466.216 63.245 469.199 60.3633 469.199 56.8371C469.199 53.3162 466.234 50.4779 462.329 50.4779V50.4725ZM462.287 63.9492C461.271 63.9483 460.264 63.7637 459.329 63.4064C458.393 63.049 457.547 62.5263 456.84 61.8692C455.396 60.5377 454.598 58.7454 454.623 56.8858C454.623 53.0021 458.015 49.7683 462.329 49.7683C463.345 49.77 464.35 49.9549 465.285 50.3122C466.219 50.6695 467.065 51.1919 467.77 51.8483C468.488 52.5077 469.053 53.2877 469.435 54.1437C469.816 54.9997 470.006 55.915 469.994 56.8371C469.994 60.7208 466.602 63.9546 462.287 63.9546V63.9492Z" fill="black"/>
<path d="M413.155 119.638C413.098 119.065 412.854 118.62 412.423 118.303C411.992 117.985 411.408 117.827 410.669 117.827C410.167 117.827 409.743 117.898 409.398 118.04C409.052 118.177 408.787 118.369 408.602 118.615C408.422 118.861 408.332 119.141 408.332 119.453C408.323 119.714 408.377 119.941 408.496 120.135C408.619 120.329 408.787 120.497 409 120.639C409.213 120.777 409.459 120.897 409.739 121.001C410.018 121.101 410.316 121.186 410.634 121.257L411.94 121.57C412.575 121.712 413.157 121.901 413.688 122.138C414.218 122.375 414.677 122.666 415.065 123.011C415.454 123.357 415.754 123.764 415.967 124.233C416.185 124.702 416.296 125.239 416.301 125.845C416.296 126.735 416.069 127.507 415.619 128.161C415.174 128.809 414.53 129.313 413.688 129.673C412.849 130.028 411.839 130.206 410.655 130.206C409.481 130.206 408.458 130.026 407.587 129.666C406.72 129.306 406.043 128.774 405.555 128.068C405.072 127.358 404.819 126.48 404.795 125.433H407.771C407.804 125.921 407.944 126.328 408.19 126.655C408.441 126.977 408.775 127.221 409.192 127.386C409.613 127.547 410.089 127.628 410.619 127.628C411.14 127.628 411.592 127.552 411.976 127.401C412.364 127.249 412.665 127.038 412.878 126.768C413.091 126.499 413.197 126.188 413.197 125.838C413.197 125.511 413.1 125.237 412.906 125.014C412.717 124.792 412.438 124.602 412.068 124.446C411.704 124.29 411.256 124.148 410.726 124.02L409.142 123.622C407.916 123.324 406.947 122.857 406.237 122.223C405.527 121.589 405.174 120.734 405.179 119.659C405.174 118.778 405.409 118.009 405.882 117.351C406.36 116.693 407.016 116.179 407.849 115.81C408.683 115.44 409.63 115.256 410.69 115.256C411.77 115.256 412.712 115.44 413.517 115.81C414.327 116.179 414.956 116.693 415.406 117.351C415.856 118.009 416.088 118.771 416.102 119.638H413.155ZM424.115 119.091V121.364H417.546V119.091H424.115ZM419.037 116.477H422.063V126.648C422.063 126.927 422.105 127.145 422.191 127.301C422.276 127.453 422.394 127.559 422.546 127.621C422.702 127.682 422.882 127.713 423.086 127.713C423.228 127.713 423.37 127.701 423.512 127.678C423.654 127.649 423.763 127.628 423.838 127.614L424.314 129.865C424.163 129.912 423.95 129.967 423.675 130.028C423.4 130.095 423.067 130.135 422.674 130.149C421.944 130.178 421.305 130.08 420.756 129.858C420.212 129.635 419.788 129.29 419.485 128.821C419.182 128.352 419.033 127.76 419.037 127.045V116.477ZM429.197 130.206C428.501 130.206 427.881 130.085 427.336 129.844C426.792 129.598 426.361 129.235 426.044 128.757C425.731 128.274 425.575 127.673 425.575 126.953C425.575 126.347 425.686 125.838 425.909 125.426C426.131 125.014 426.434 124.683 426.818 124.432C427.201 124.181 427.637 123.991 428.125 123.864C428.617 123.736 429.133 123.646 429.673 123.594C430.307 123.527 430.819 123.466 431.207 123.409C431.595 123.348 431.877 123.258 432.052 123.139C432.227 123.021 432.315 122.846 432.315 122.614V122.571C432.315 122.121 432.173 121.773 431.889 121.527C431.609 121.281 431.212 121.158 430.696 121.158C430.151 121.158 429.718 121.278 429.396 121.52C429.074 121.757 428.861 122.055 428.757 122.415L425.958 122.188C426.1 121.525 426.38 120.952 426.797 120.469C427.213 119.981 427.751 119.607 428.409 119.347C429.072 119.081 429.839 118.949 430.71 118.949C431.316 118.949 431.896 119.02 432.45 119.162C433.009 119.304 433.503 119.524 433.934 119.822C434.37 120.121 434.713 120.504 434.964 120.973C435.215 121.437 435.341 121.993 435.341 122.642V130H432.471V128.487H432.386C432.211 128.828 431.976 129.129 431.683 129.389C431.389 129.645 431.037 129.846 430.625 129.993C430.213 130.135 429.737 130.206 429.197 130.206ZM430.064 128.118C430.509 128.118 430.902 128.03 431.243 127.855C431.583 127.675 431.851 127.434 432.045 127.131C432.239 126.828 432.336 126.484 432.336 126.101V124.943C432.242 125.005 432.111 125.062 431.946 125.114C431.785 125.161 431.602 125.206 431.399 125.249C431.195 125.286 430.992 125.322 430.788 125.355C430.584 125.384 430.4 125.41 430.234 125.433C429.879 125.485 429.569 125.568 429.304 125.682C429.038 125.795 428.833 125.949 428.686 126.143C428.539 126.333 428.466 126.57 428.466 126.854C428.466 127.266 428.615 127.58 428.913 127.798C429.216 128.011 429.6 128.118 430.064 128.118ZM443.49 119.091V121.364H436.921V119.091H443.49ZM438.412 116.477H441.438V126.648C441.438 126.927 441.48 127.145 441.566 127.301C441.651 127.453 441.769 127.559 441.921 127.621C442.077 127.682 442.257 127.713 442.461 127.713C442.603 127.713 442.745 127.701 442.887 127.678C443.029 127.649 443.138 127.628 443.213 127.614L443.689 129.865C443.538 129.912 443.325 129.967 443.05 130.028C442.775 130.095 442.442 130.135 442.049 130.149C441.319 130.178 440.68 130.08 440.131 129.858C439.587 129.635 439.163 129.29 438.86 128.821C438.557 128.352 438.408 127.76 438.412 127.045V116.477ZM454.401 122.202L451.631 122.372C451.584 122.135 451.482 121.922 451.326 121.733C451.17 121.539 450.964 121.385 450.708 121.271C450.457 121.153 450.156 121.094 449.806 121.094C449.337 121.094 448.942 121.193 448.62 121.392C448.298 121.586 448.137 121.847 448.137 122.173C448.137 122.434 448.241 122.654 448.45 122.834C448.658 123.014 449.015 123.158 449.522 123.267L451.496 123.665C452.557 123.883 453.348 124.233 453.869 124.716C454.389 125.199 454.65 125.833 454.65 126.619C454.65 127.334 454.439 127.962 454.018 128.501C453.601 129.041 453.028 129.463 452.299 129.766C451.575 130.064 450.739 130.213 449.792 130.213C448.348 130.213 447.197 129.912 446.34 129.311C445.488 128.705 444.988 127.881 444.842 126.839L447.817 126.683C447.907 127.124 448.125 127.46 448.471 127.692C448.817 127.919 449.259 128.033 449.799 128.033C450.329 128.033 450.755 127.931 451.077 127.727C451.404 127.519 451.57 127.251 451.575 126.925C451.57 126.65 451.454 126.425 451.227 126.25C450.999 126.07 450.649 125.933 450.175 125.838L448.286 125.462C447.221 125.249 446.428 124.879 445.907 124.354C445.391 123.828 445.133 123.158 445.133 122.344C445.133 121.643 445.322 121.039 445.701 120.533C446.085 120.026 446.622 119.635 447.313 119.361C448.009 119.086 448.824 118.949 449.756 118.949C451.134 118.949 452.219 119.24 453.009 119.822C453.805 120.405 454.269 121.198 454.401 122.202Z" fill="black"/>
</svg>
